# xmcd CD database file
#
# Track frame offsets:
#	150
#	20479
#	34411
#	60153
#	82452
#	97456
#	120121
#	135384
#	157998
#	180232
#	211442
#
# Disc length: 3046 seconds
#
# Revision: 3
# Processed by: cddbd v1.5.2PL0 Copyright (c) Steve Scherf et al.
# Submitted via: CDex 1.70beta2
#
DISCID=8d0be40b
DTITLE=鈴木祥子 - 鈴木祥子
DYEAR=2006
DGENRE=Rock
TTITLE0=愛の名前
TTITLE1=Love is a sweet harmony
TTITLE2=何がしたいの? (Naked Mix)
TTITLE3=PASSION
TTITLE4=契約 (スペルバインド)
TTITLE5=ラジオのように
TTITLE6=Frederick
TTITLE7=忘却
TTITLE8=LOVE/IDENTIFIED
TTITLE9=BLONDE
TTITLE10=道
EXTD=YEAR: 2006
EXTT0=
EXTT1=
EXTT2=
EXTT3=
EXTT4=
EXTT5=
EXTT6=
EXTT7=
EXTT8=
EXTT9=
EXTT10=
PLAYORDER=
